<svg xmlns="http://www.w3.org/2000/svg" xmlns:xlink="http://www.w3.org/1999/xlink" width="50" zoomAndPan="magnify" viewBox="0 0 37.5 37.499999" height="50" preserveAspectRatio="xMidYMid meet" version="1.0"><defs><clipPath id="5ebab48739"><path d="M 0 0 L 37.007812 0 L 37.007812 37.007812 L 0 37.007812 Z M 0 0 " clip-rule="nonzero"/></clipPath><clipPath id="dc47cf1966"><path d="M 0 0 L 37.007812 0 L 37.007812 8 L 0 8 Z M 0 0 " clip-rule="nonzero"/></clipPath><clipPath id="78ca81e2da"><path d="M 0 30 L 37.007812 30 L 37.007812 37.007812 L 0 37.007812 Z M 0 30 " clip-rule="nonzero"/></clipPath><clipPath id="39da53c160"><path d="M 3.824219 20 L 13 20 L 13 29.292969 L 3.824219 29.292969 Z M 3.824219 20 " clip-rule="nonzero"/></clipPath><clipPath id="bf9afc1916"><path d="M 12 19 L 16.285156 19 L 16.285156 24 L 12 24 Z M 12 19 " clip-rule="nonzero"/></clipPath><clipPath id="646f8818a0"><path d="M 5 11.488281 L 13 11.488281 L 13 20 L 5 20 Z M 5 11.488281 " clip-rule="nonzero"/></clipPath><clipPath id="c14ce71baa"><path d="M 13 8.113281 L 25 8.113281 L 25 20.578125 L 13 20.578125 Z M 13 8.113281 " clip-rule="nonzero"/></clipPath><clipPath id="3b87dc01bd"><path d="M 13 8.113281 L 25 8.113281 L 25 15 L 13 15 Z M 13 8.113281 " clip-rule="nonzero"/></clipPath><clipPath id="ec756459ec"><path d="M 12.652344 13 L 25.117188 13 L 25.117188 15 L 12.652344 15 Z M 12.652344 13 " clip-rule="nonzero"/></clipPath><clipPath id="c9b30b38e3"><path d="M 18 8.113281 L 20 8.113281 L 20 13 L 18 13 Z M 18 8.113281 " clip-rule="nonzero"/></clipPath><clipPath id="ed72e43fa9"><path d="M 20 8.113281 L 22 8.113281 L 22 13 L 20 13 Z M 20 8.113281 " clip-rule="nonzero"/></clipPath><clipPath id="f1e709c7a9"><path d="M 16 8.113281 L 18 8.113281 L 18 13 L 16 13 Z M 16 8.113281 " clip-rule="nonzero"/></clipPath><clipPath id="c10bf8967b"><path d="M 24.847656 18.75 L 35.53125 18.75 L 35.53125 29.433594 L 24.847656 29.433594 Z M 24.847656 18.75 " clip-rule="nonzero"/></clipPath></defs><g clip-path="url(#5ebab48739)"><path fill="#ecf0f1" d="M 0 37.390625 L 37.390625 37.390625 L 37.390625 0 L 0 0 Z M 0 37.390625 " fill-opacity="1" fill-rule="nonzero"/></g><g clip-path="url(#dc47cf1966)"><path fill="#546a79" d="M 0 7.738281 L 37.390625 7.738281 L 37.390625 0 L 0 0 Z M 0 7.738281 " fill-opacity="1" fill-rule="nonzero"/></g><path fill="#ed7161" d="M 5.800781 3.871094 C 5.800781 4.9375 4.9375 5.800781 3.867188 5.800781 C 2.796875 5.800781 1.933594 4.9375 1.933594 3.871094 C 1.933594 2.800781 2.796875 1.929688 3.867188 1.929688 C 4.9375 1.929688 5.800781 2.800781 5.800781 3.871094 Z M 5.800781 3.871094 " fill-opacity="1" fill-rule="nonzero"/><path fill="#f0c419" d="M 11.601562 3.871094 C 11.601562 4.9375 10.738281 5.800781 9.671875 5.800781 C 8.601562 5.800781 7.738281 4.9375 7.738281 3.871094 C 7.738281 2.800781 8.601562 1.929688 9.671875 1.929688 C 10.738281 1.929688 11.601562 2.800781 11.601562 3.871094 Z M 11.601562 3.871094 " fill-opacity="1" fill-rule="nonzero"/><path fill="#4fba6f" d="M 17.40625 3.871094 C 17.40625 4.9375 16.542969 5.800781 15.472656 5.800781 C 14.40625 5.800781 13.539062 4.9375 13.539062 3.871094 C 13.539062 2.800781 14.40625 1.929688 15.472656 1.929688 C 16.542969 1.929688 17.40625 2.800781 17.40625 3.871094 Z M 17.40625 3.871094 " fill-opacity="1" fill-rule="nonzero"/><g clip-path="url(#78ca81e2da)"><path fill="#71c285" d="M 0 37.390625 L 37.390625 37.390625 L 37.390625 30.300781 L 0 30.300781 Z M 0 37.390625 " fill-opacity="1" fill-rule="nonzero"/></g><g clip-path="url(#39da53c160)"><path fill="#fcca55" d="M 7.820312 22.765625 C 8.703125 22.683594 9.503906 23.214844 9.859375 23.9375 C 10.5625 25.339844 9.652344 27.035156 8.15625 27.152344 C 7.46875 27.207031 6.921875 26.921875 6.574219 26.597656 C 5.71875 25.804688 5.617188 24.40625 6.410156 23.496094 C 6.710938 23.148438 7.160156 22.828125 7.820312 22.765625 Z M 11.847656 23.140625 L 11.679688 22.796875 L 11.484375 22.816406 L 10.902344 22.875 C 10.839844 22.820312 10.796875 22.734375 10.75 22.671875 C 10.621094 22.507812 10.402344 22.257812 10.25 22.144531 C 10.242188 22.023438 10.371094 21.527344 10.390625 21.335938 C 10.230469 21.175781 9.65625 20.90625 9.417969 20.816406 C 9.078125 20.6875 9.144531 20.683594 8.96875 20.914062 L 8.640625 21.339844 C 8.5 21.34375 8.316406 21.300781 8.15625 21.292969 C 7.988281 21.289062 7.824219 21.296875 7.65625 21.300781 L 7.210938 20.628906 C 7 20.632812 6.429688 20.851562 6.203125 20.964844 C 6.152344 20.988281 6.101562 21.015625 6.050781 21.042969 C 6.007812 21.066406 5.949219 21.101562 5.902344 21.121094 L 5.984375 21.9375 L 5.664062 22.199219 C 5.132812 22.699219 5.402344 22.636719 4.976562 22.558594 C 4.855469 22.535156 4.605469 22.464844 4.496094 22.464844 C 4.355469 22.699219 4.289062 22.785156 4.164062 23.066406 C 4.09375 23.222656 3.933594 23.597656 3.914062 23.777344 C 3.953125 23.820312 4.007812 23.863281 4.0625 23.90625 C 4.113281 23.949219 4.15625 23.988281 4.207031 24.03125 C 4.3125 24.117188 4.402344 24.203125 4.503906 24.285156 C 4.515625 24.402344 4.46875 24.628906 4.464844 24.769531 C 4.457031 24.949219 4.464844 25.125 4.46875 25.300781 C 4.453125 25.34375 3.914062 25.667969 3.824219 25.765625 C 3.832031 26.0625 4.214844 27.082031 4.304688 27.121094 C 4.492188 27.128906 4.816406 27.070312 5.019531 27.046875 C 5.097656 27.039062 5.128906 27.109375 5.21875 27.230469 C 5.277344 27.308594 5.335938 27.378906 5.398438 27.449219 C 5.457031 27.523438 5.519531 27.589844 5.589844 27.65625 C 5.746094 27.804688 5.738281 27.753906 5.710938 27.90625 C 5.691406 28.019531 5.671875 28.128906 5.648438 28.246094 C 5.628906 28.34375 5.589844 28.5 5.585938 28.585938 C 5.847656 28.785156 6.542969 29.15625 6.855469 29.195312 C 7.027344 29 7.175781 28.777344 7.339844 28.574219 C 7.492188 28.582031 7.652344 28.613281 7.816406 28.625 C 7.992188 28.636719 8.152344 28.625 8.324219 28.621094 L 8.753906 29.292969 C 8.933594 29.28125 9.296875 29.160156 9.457031 29.09375 C 9.566406 29.046875 9.675781 29.003906 9.777344 28.953125 C 9.851562 28.917969 10.015625 28.835938 10.074219 28.789062 L 9.992188 27.988281 C 10.101562 27.886719 10.207031 27.816406 10.308594 27.722656 C 10.414062 27.621094 10.503906 27.542969 10.597656 27.433594 C 10.691406 27.320312 10.683594 27.300781 10.761719 27.316406 C 10.925781 27.34375 11.394531 27.457031 11.476562 27.453125 C 11.597656 27.265625 11.71875 27.070312 11.816406 26.847656 C 11.875 26.710938 12.050781 26.285156 12.0625 26.136719 C 11.96875 26.054688 11.867188 25.960938 11.765625 25.882812 C 11.714844 25.839844 11.667969 25.796875 11.617188 25.753906 C 11.367188 25.546875 11.492188 25.722656 11.511719 25.132812 C 11.519531 24.957031 11.507812 24.785156 11.503906 24.617188 L 12.050781 24.234375 C 12.171875 24.144531 12.160156 24.167969 12.140625 24.074219 C 12.070312 23.753906 11.976562 23.40625 11.847656 23.140625 Z M 11.847656 23.140625 " fill-opacity="1" fill-rule="evenodd"/></g><g clip-path="url(#bf9afc1916)"><path fill="#78a2cc" d="M 14.152344 20.296875 C 14.585938 20.257812 14.976562 20.519531 15.152344 20.871094 C 15.496094 21.558594 15.050781 22.386719 14.320312 22.445312 C 13.980469 22.472656 13.714844 22.332031 13.542969 22.175781 C 13.125 21.785156 13.074219 21.101562 13.460938 20.65625 C 13.609375 20.484375 13.832031 20.328125 14.152344 20.296875 Z M 16.125 20.480469 L 16.042969 20.3125 L 15.949219 20.324219 L 15.664062 20.351562 C 15.632812 20.324219 15.613281 20.28125 15.589844 20.25 C 15.523438 20.171875 15.417969 20.046875 15.34375 19.992188 C 15.339844 19.933594 15.402344 19.691406 15.414062 19.597656 C 15.332031 19.519531 15.050781 19.386719 14.9375 19.34375 C 14.769531 19.28125 14.800781 19.277344 14.714844 19.390625 L 14.554688 19.601562 C 14.488281 19.601562 14.394531 19.578125 14.320312 19.578125 C 14.234375 19.574219 14.15625 19.578125 14.074219 19.578125 L 13.855469 19.25 C 13.75 19.253906 13.472656 19.359375 13.359375 19.414062 C 13.335938 19.425781 13.3125 19.441406 13.285156 19.453125 C 13.265625 19.464844 13.238281 19.484375 13.214844 19.492188 L 13.253906 19.890625 L 13.097656 20.019531 C 12.835938 20.265625 12.96875 20.234375 12.761719 20.195312 C 12.703125 20.183594 12.578125 20.148438 12.527344 20.152344 C 12.457031 20.265625 12.425781 20.308594 12.363281 20.445312 C 12.328125 20.523438 12.25 20.707031 12.242188 20.792969 C 12.261719 20.816406 12.285156 20.835938 12.3125 20.855469 C 12.339844 20.878906 12.359375 20.894531 12.382812 20.917969 C 12.433594 20.960938 12.480469 21 12.53125 21.042969 C 12.535156 21.097656 12.511719 21.210938 12.507812 21.277344 C 12.507812 21.367188 12.511719 21.453125 12.511719 21.539062 C 12.503906 21.558594 12.238281 21.71875 12.195312 21.765625 C 12.199219 21.914062 12.386719 22.410156 12.429688 22.429688 C 12.523438 22.433594 12.683594 22.40625 12.78125 22.394531 C 12.820312 22.390625 12.835938 22.425781 12.878906 22.484375 C 12.90625 22.523438 12.9375 22.558594 12.964844 22.59375 C 12.996094 22.628906 13.027344 22.660156 13.0625 22.691406 C 13.136719 22.765625 13.132812 22.742188 13.121094 22.816406 C 13.109375 22.871094 13.101562 22.925781 13.089844 22.980469 C 13.082031 23.027344 13.0625 23.105469 13.058594 23.148438 C 13.1875 23.246094 13.527344 23.429688 13.679688 23.445312 C 13.765625 23.351562 13.839844 23.242188 13.917969 23.144531 C 13.992188 23.148438 14.070312 23.160156 14.152344 23.167969 C 14.238281 23.171875 14.316406 23.167969 14.398438 23.164062 L 14.609375 23.492188 C 14.699219 23.488281 14.875 23.429688 14.957031 23.398438 C 15.007812 23.375 15.0625 23.351562 15.113281 23.328125 C 15.148438 23.308594 15.230469 23.273438 15.257812 23.25 L 15.21875 22.855469 C 15.269531 22.808594 15.324219 22.769531 15.371094 22.726562 C 15.425781 22.675781 15.46875 22.636719 15.511719 22.582031 C 15.558594 22.527344 15.554688 22.519531 15.59375 22.527344 C 15.675781 22.539062 15.902344 22.59375 15.945312 22.59375 C 16.003906 22.503906 16.0625 22.40625 16.109375 22.296875 C 16.140625 22.230469 16.226562 22.019531 16.230469 21.949219 C 16.183594 21.910156 16.136719 21.863281 16.085938 21.824219 C 16.0625 21.804688 16.039062 21.78125 16.011719 21.761719 C 15.890625 21.660156 15.953125 21.746094 15.960938 21.457031 C 15.964844 21.371094 15.960938 21.289062 15.957031 21.203125 L 16.226562 21.015625 C 16.285156 20.972656 16.277344 20.984375 16.269531 20.9375 C 16.234375 20.78125 16.191406 20.613281 16.125 20.480469 Z M 16.125 20.480469 " fill-opacity="1" fill-rule="evenodd"/></g><g clip-path="url(#646f8818a0)"><path fill="#298463" d="M 8.625 13.347656 C 9.394531 13.277344 10.089844 13.738281 10.402344 14.367188 C 11.011719 15.589844 10.222656 17.066406 8.917969 17.167969 C 8.316406 17.214844 7.839844 16.96875 7.539062 16.6875 C 6.792969 15.996094 6.707031 14.777344 7.394531 13.980469 C 7.65625 13.679688 8.050781 13.398438 8.625 13.347656 Z M 12.132812 13.675781 L 11.984375 13.375 L 11.816406 13.390625 L 11.308594 13.441406 C 11.253906 13.394531 11.21875 13.316406 11.175781 13.265625 C 11.0625 13.121094 10.875 12.90625 10.738281 12.804688 C 10.734375 12.699219 10.847656 12.265625 10.863281 12.101562 C 10.722656 11.960938 10.222656 11.726562 10.015625 11.648438 C 9.722656 11.535156 9.777344 11.535156 9.621094 11.734375 L 9.339844 12.105469 C 9.21875 12.109375 9.054688 12.070312 8.917969 12.066406 C 8.769531 12.058594 8.628906 12.070312 8.480469 12.070312 L 8.09375 11.488281 C 7.910156 11.488281 7.414062 11.679688 7.214844 11.777344 C 7.171875 11.796875 7.128906 11.820312 7.082031 11.847656 C 7.042969 11.867188 6.996094 11.898438 6.953125 11.914062 L 7.023438 12.625 L 6.746094 12.851562 C 6.28125 13.289062 6.515625 13.234375 6.148438 13.164062 C 6.042969 13.144531 5.824219 13.085938 5.726562 13.085938 C 5.605469 13.289062 5.546875 13.363281 5.4375 13.609375 C 5.378906 13.746094 5.238281 14.074219 5.222656 14.230469 C 5.257812 14.265625 5.304688 14.300781 5.347656 14.339844 C 5.394531 14.378906 5.429688 14.410156 5.476562 14.449219 C 5.566406 14.527344 5.648438 14.597656 5.738281 14.671875 C 5.742188 14.773438 5.703125 14.96875 5.699219 15.09375 C 5.695312 15.25 5.703125 15.402344 5.703125 15.554688 C 5.691406 15.589844 5.222656 15.875 5.144531 15.957031 C 5.148438 16.21875 5.484375 17.105469 5.5625 17.140625 C 5.726562 17.148438 6.007812 17.097656 6.183594 17.074219 C 6.253906 17.066406 6.28125 17.132812 6.355469 17.234375 C 6.40625 17.304688 6.460938 17.367188 6.511719 17.429688 C 6.566406 17.492188 6.621094 17.550781 6.679688 17.605469 C 6.816406 17.734375 6.8125 17.691406 6.785156 17.824219 C 6.769531 17.925781 6.75 18.019531 6.730469 18.121094 C 6.714844 18.203125 6.679688 18.339844 6.679688 18.417969 C 6.902344 18.589844 7.511719 18.914062 7.785156 18.949219 C 7.933594 18.777344 8.0625 18.585938 8.203125 18.40625 C 8.335938 18.414062 8.476562 18.441406 8.621094 18.449219 C 8.773438 18.460938 8.914062 18.453125 9.0625 18.445312 L 9.4375 19.03125 C 9.59375 19.023438 9.910156 18.917969 10.050781 18.859375 C 10.144531 18.820312 10.238281 18.78125 10.328125 18.734375 C 10.390625 18.707031 10.539062 18.636719 10.585938 18.59375 L 10.515625 17.898438 C 10.613281 17.808594 10.703125 17.746094 10.792969 17.664062 C 10.882812 17.578125 10.964844 17.507812 11.042969 17.414062 C 11.125 17.3125 11.117188 17.300781 11.1875 17.3125 C 11.328125 17.332031 11.738281 17.433594 11.808594 17.429688 C 11.914062 17.269531 12.019531 17.09375 12.105469 16.902344 C 12.15625 16.78125 12.3125 16.410156 12.316406 16.285156 C 12.238281 16.214844 12.148438 16.128906 12.0625 16.0625 C 12.015625 16.027344 11.976562 15.988281 11.929688 15.949219 C 11.714844 15.769531 11.824219 15.921875 11.839844 15.40625 C 11.84375 15.253906 11.835938 15.105469 11.835938 14.960938 L 12.308594 14.625 C 12.417969 14.550781 12.40625 14.570312 12.386719 14.484375 C 12.328125 14.207031 12.246094 13.90625 12.132812 13.675781 Z M 12.132812 13.675781 " fill-opacity="1" fill-rule="evenodd"/></g><g clip-path="url(#c14ce71baa)"><path fill="#0093b9" d="M 23.53125 14.203125 L 22.574219 11.894531 C 22.25 11.570312 22.089844 11.40625 21.765625 11.082031 L 21.84375 9.53125 L 20.5 8.972656 L 19.457031 10.128906 L 18.308594 10.128906 L 17.269531 8.972656 L 15.921875 9.53125 L 16.003906 11.082031 L 15.191406 11.894531 L 14.234375 14.203125 L 14.234375 15.347656 L 13.082031 16.390625 L 13.636719 17.734375 L 15.191406 17.65625 L 16.003906 18.464844 L 15.921875 20.019531 L 17.269531 20.578125 L 18.308594 19.421875 L 19.457031 19.421875 L 20.5 20.578125 L 21.84375 20.019531 L 21.765625 18.464844 C 22.089844 18.144531 22.25 17.980469 22.574219 17.65625 L 24.128906 17.734375 L 24.6875 16.390625 L 23.53125 15.347656 Z M 18.882812 17.570312 C 18.511719 17.570312 18.15625 17.496094 17.816406 17.355469 C 17.472656 17.214844 17.171875 17.011719 16.90625 16.75 C 16.644531 16.488281 16.445312 16.1875 16.300781 15.84375 C 16.160156 15.5 16.089844 15.144531 16.089844 14.773438 C 16.089844 14.40625 16.160156 14.046875 16.300781 13.707031 C 16.445312 13.363281 16.644531 13.0625 16.90625 12.800781 C 17.171875 12.539062 17.472656 12.335938 17.816406 12.195312 C 18.15625 12.050781 18.511719 11.980469 18.882812 11.980469 C 19.253906 11.980469 19.609375 12.050781 19.953125 12.195312 C 20.292969 12.335938 20.597656 12.539062 20.859375 12.800781 C 21.121094 13.0625 21.324219 13.363281 21.464844 13.707031 C 21.605469 14.046875 21.675781 14.40625 21.675781 14.773438 C 21.675781 15.144531 21.605469 15.5 21.464844 15.84375 C 21.324219 16.1875 21.121094 16.488281 20.859375 16.75 C 20.597656 17.011719 20.292969 17.214844 19.953125 17.355469 C 19.609375 17.496094 19.253906 17.570312 18.882812 17.570312 Z M 18.882812 17.570312 " fill-opacity="1" fill-rule="nonzero"/></g><path fill="#56c3c1" d="M 18.667969 18.214844 L 19.097656 18.214844 L 19.097656 18.644531 L 18.667969 18.644531 Z M 18.667969 18.214844 " fill-opacity="1" fill-rule="nonzero"/><path fill="#56c3c1" d="M 21.164062 17.359375 L 21.464844 17.054688 L 21.769531 17.359375 L 21.464844 17.660156 Z M 21.164062 17.359375 " fill-opacity="1" fill-rule="nonzero"/><path fill="#56c3c1" d="M 15.996094 17.359375 L 16.300781 17.054688 L 16.605469 17.359375 L 16.300781 17.660156 Z M 15.996094 17.359375 " fill-opacity="1" fill-rule="nonzero"/><g clip-path="url(#3b87dc01bd)"><path fill="#f7ce2c" d="M 19.507812 8.597656 C 19.898438 8.640625 20.28125 8.726562 20.652344 8.855469 L 21.675781 9.335938 C 22.476562 9.820312 23.109375 10.472656 23.566406 11.289062 C 24.027344 12.101562 24.257812 12.980469 24.253906 13.914062 L 24.253906 14.34375 L 13.511719 14.34375 L 13.511719 13.914062 C 13.511719 12.980469 13.742188 12.101562 14.199219 11.289062 C 14.660156 10.472656 15.289062 9.820312 16.089844 9.335938 L 17.113281 8.855469 C 17.488281 8.726562 17.867188 8.640625 18.257812 8.597656 Z M 19.507812 8.597656 " fill-opacity="1" fill-rule="nonzero"/></g><g clip-path="url(#ec756459ec)"><path fill="#d2b32b" d="M 13.1875 13.914062 L 24.578125 13.914062 C 24.726562 13.914062 24.851562 13.96875 24.957031 14.074219 C 25.0625 14.175781 25.117188 14.304688 25.117188 14.453125 C 25.117188 14.601562 25.0625 14.726562 24.957031 14.832031 C 24.851562 14.9375 24.726562 14.988281 24.578125 14.988281 L 13.1875 14.988281 C 13.039062 14.988281 12.914062 14.9375 12.808594 14.832031 C 12.703125 14.726562 12.652344 14.601562 12.652344 14.453125 C 12.652344 14.304688 12.703125 14.175781 12.808594 14.074219 C 12.914062 13.96875 13.039062 13.914062 13.1875 13.914062 Z M 13.1875 13.914062 " fill-opacity="1" fill-rule="nonzero"/></g><g clip-path="url(#c9b30b38e3)"><path fill="#d2b32b" d="M 18.882812 8.113281 C 19.0625 8.113281 19.214844 8.175781 19.339844 8.300781 C 19.464844 8.429688 19.527344 8.578125 19.527344 8.757812 L 19.527344 12.195312 C 19.527344 12.375 19.464844 12.527344 19.339844 12.652344 C 19.214844 12.777344 19.0625 12.839844 18.882812 12.839844 C 18.707031 12.839844 18.554688 12.777344 18.425781 12.652344 C 18.300781 12.527344 18.238281 12.375 18.238281 12.195312 L 18.238281 8.757812 C 18.238281 8.578125 18.300781 8.429688 18.425781 8.300781 C 18.554688 8.175781 18.707031 8.113281 18.882812 8.113281 Z M 18.882812 8.113281 " fill-opacity="1" fill-rule="nonzero"/></g><g clip-path="url(#ed72e43fa9)"><path fill="#d2b32b" d="M 21.140625 8.542969 C 21.289062 8.542969 21.414062 8.59375 21.519531 8.699219 C 21.625 8.804688 21.675781 8.933594 21.675781 9.082031 L 21.675781 12.304688 C 21.675781 12.453125 21.625 12.578125 21.519531 12.683594 C 21.414062 12.789062 21.289062 12.839844 21.140625 12.839844 C 20.992188 12.839844 20.863281 12.789062 20.761719 12.683594 C 20.65625 12.578125 20.601562 12.453125 20.601562 12.304688 L 20.601562 9.082031 C 20.601562 8.933594 20.65625 8.804688 20.761719 8.699219 C 20.863281 8.59375 20.992188 8.542969 21.140625 8.542969 Z M 21.140625 8.542969 " fill-opacity="1" fill-rule="nonzero"/></g><g clip-path="url(#f1e709c7a9)"><path fill="#d2b32b" d="M 16.628906 12.839844 C 16.480469 12.839844 16.351562 12.789062 16.246094 12.683594 C 16.140625 12.578125 16.089844 12.453125 16.089844 12.304688 L 16.089844 9.082031 C 16.089844 8.933594 16.140625 8.804688 16.246094 8.699219 C 16.351562 8.59375 16.480469 8.542969 16.628906 8.542969 C 16.777344 8.542969 16.902344 8.59375 17.007812 8.699219 C 17.113281 8.804688 17.164062 8.933594 17.164062 9.082031 L 17.164062 12.304688 C 17.164062 12.453125 17.113281 12.578125 17.007812 12.683594 C 16.902344 12.789062 16.777344 12.839844 16.628906 12.839844 Z M 16.628906 12.839844 " fill-opacity="1" fill-rule="nonzero"/></g><g clip-path="url(#c10bf8967b)"><path fill="#f7df1e" d="M 24.847656 18.75 L 35.53125 18.75 L 35.53125 29.433594 L 24.847656 29.433594 Z M 24.847656 18.75 " fill-opacity="1" fill-rule="nonzero"/></g><path fill="#000000" d="M 27.65625 27.675781 L 28.476562 27.183594 C 28.632812 27.460938 28.777344 27.699219 29.121094 27.699219 C 29.449219 27.699219 29.660156 27.570312 29.660156 27.066406 L 29.660156 23.65625 L 30.660156 23.65625 L 30.660156 27.082031 C 30.660156 28.121094 30.050781 28.59375 29.164062 28.59375 C 28.359375 28.59375 27.894531 28.179688 27.65625 27.675781 " fill-opacity="1" fill-rule="nonzero"/><path fill="#000000" d="M 31.207031 27.570312 L 32.023438 27.097656 C 32.238281 27.449219 32.519531 27.707031 33.015625 27.707031 C 33.429688 27.707031 33.695312 27.5 33.695312 27.210938 C 33.695312 26.867188 33.421875 26.746094 32.964844 26.542969 L 32.714844 26.4375 C 31.988281 26.128906 31.507812 25.742188 31.507812 24.921875 C 31.507812 24.171875 32.082031 23.597656 32.980469 23.597656 C 33.617188 23.597656 34.074219 23.820312 34.40625 24.402344 L 33.625 24.902344 C 33.453125 24.59375 33.265625 24.472656 32.980469 24.472656 C 32.683594 24.472656 32.5 24.660156 32.5 24.902344 C 32.5 25.203125 32.683594 25.324219 33.113281 25.511719 L 33.367188 25.621094 C 34.21875 25.984375 34.699219 26.359375 34.699219 27.195312 C 34.699219 28.101562 33.988281 28.59375 33.035156 28.59375 C 32.105469 28.59375 31.5 28.152344 31.207031 27.570312 " fill-opacity="1" fill-rule="nonzero"/></svg>